<svg width="16" height="16" fill="none" xmlns="http://www.w3.org/2000/svg"><path fill-rule="evenodd" clip-rule="evenodd" d="M4.667 2A2.667 2.667 0 002 4.667v6.666A2.667 2.667 0 004.667 14h6.666A2.667 2.667 0 0014 11.333V4.667A2.667 2.667 0 0011.333 2H4.667zm-4 2.667a4 4 0 014-4h6.666a4 4 0 014 4v6.666a4 4 0 01-4 4H4.667a4 4 0 01-4-4V4.667z" fill="#62626B"/><path fill-rule="evenodd" clip-rule="evenodd" d="M8.322 5.993a2 2 0 10-.587 3.956 2 2 0 00.587-3.956zm-1.828-.98a3.333 3.333 0 113.07 5.917 3.333 3.333 0 01-3.07-5.918z" fill="#62626B"/></svg>