<svg width="16" height="16" fill="none" xmlns="http://www.w3.org/2000/svg"><path d="M10.772 4.901a.518.518 0 01.54.04 5.46 5.46 0 002.692 1.01V4.469A4.042 4.042 0 0110.523.987H9.017m1.755 3.914s0 0 0 0l.023.045-.023-.045zm0 0a.518.518 0 00-.282.462v5.398a4.256 4.256 0 01-4.251 4.252 4.256 4.256 0 01-4.252-4.252 4.258 4.258 0 013.733-4.22m0 0v1.49m0-1.49l.05-.005v1.538m-.05-1.532v-.05L9.017.937v.05M5.72 8.031a2.783 2.783 0 00-2.26 2.73 2.781 2.781 0 002.78 2.779 2.781 2.781 0 002.778-2.778V.988M5.72 8.032a2.8 2.8 0 01.041-.008l.009.05m-.05-.042v.042h.05M9.017.987h-.05v9.775a2.731 2.731 0 01-2.728 2.728 2.731 2.731 0 01-2.729-2.73c0-1.344.977-2.464 2.259-2.687m8.753-4.61A3 3 0 0111.527.47a.519.519 0 00-.519-.519h-2.51a.519.519 0 00-.519.519v10.293a1.741 1.741 0 11-1.741-1.741.519.519 0 00.52-.519v-2.51a.519.519 0 00-.52-.52 5.295 5.295 0 00-5.288 5.29 5.294 5.294 0 005.289 5.288 5.295 5.295 0 005.288-5.289V6.288a6.5 6.5 0 002.996.725.519.519 0 00.519-.52v-2.51a.519.519 0 00-.52-.518z" fill="#62626B" stroke="#62626B" stroke-width=".1"/></svg>