<svg width="17" height="16" fill="none" xmlns="http://www.w3.org/2000/svg"><path d="M6.571 4.667c-2 0-2.667 2-2.667 3.666 0 2 1.334 5 2.667 5 .725-.03 1.12-.333 2-.333.875 0 1 .333 2 .333s2.667-2 2.667-3.333c-.019-.007-1.648-.269-1.667-2-.013-1.447 1.61-1.97 1.667-2-.682-.995-1.968-1.309-2.334-1.333-.955-.074-1.886.666-2.333.666-.453 0-1.267-.666-2-.666z" fill="#BAC1C5"/><path d="M8.571 2.667a1.333 1.333 0 001.334-1.334A1.333 1.333 0 008.57 2.667" stroke="#BAC1C5" stroke-width="1.5" stroke-linecap="round" stroke-linejoin="round"/></svg>