<svg width="81" height="84" fill="none" xmlns="http://www.w3.org/2000/svg"><path d="M47.695 26.488l-.085.982.126-.484-.126.484h.002l.007.003.025.006.095.024.364.09a69.898 69.898 0 005.702 1.117c1.701.257 3.567.465 5.324.504 1.369.03 2.696-.041 3.836-.283a7.515 7.515 0 01-.232.515c-.418.847-1.189 2.044-2.59 3.386-2.803 2.684-8.151 5.965-18.303 8.153-.61.13-3 .714-4.427 1.385-.355.167-.693.359-.929.575-.215.197-.514.584-.306 1.054.088.198.244.34.402.443.16.104.357.191.581.266.446.15 1.069.276 1.895.38l.016.003.08.014.306.05a98.729 98.729 0 004.631.654c1.338.155 2.761.285 4.01.324.613.02 1.203.017 1.728-.019-.19.222-.415.475-.678.753-.994 1.052-2.517 2.455-4.62 3.846-4.203 2.78-10.737 5.523-20.038 5.308-.963-.022-1.92.32-2.613 1.032C19.118 59.89 10.533 69.038.89 82.548c1.998-9.05 10.215-30.504 23.718-49.148C38.098 14.776 56.742-.884 79.604 1.185c-.19.256-.44.578-.75.952a30.532 30.532 0 01-3.934 3.896c-3.594 2.989-9.204 6.404-17.254 8.073l.04.986.061-.497-.06.497h.007l.017.002.068.008.258.027c.223.021.548.05.957.078a43.57 43.57 0 003.316.094c2.395-.022 5.43-.25 8.287-1.042a13.34 13.34 0 01-.45.843c-.637 1.102-1.695 2.598-3.369 4.147-3.341 3.093-9.172 6.43-19.103 7.239z" stroke="#62626B"/></svg>