<svg width="143" height="48" fill="none" xmlns="http://www.w3.org/2000/svg"><g clip-path="url(#clip0)"><path transform="translate(2.5)" fill="url(#paint0_radial)" d="M0 0h52v48H0z"/><path d="M14.658 18.167L13.081 16h2.905m-1.328 2.167v7.666m0-7.666h1.328m-1.328 7.666h-.747l.581.917H12.5v.417l.47.416m1.688-1.75h1.328m12.576 5.75h-4.524V48h-9.38V29.083l-1.689-1.5m0 0h3.017m0-9.416h1.66m-1.66 0v7.666m0-7.666V16m1.66 2.167h3.57m-3.57 0v7.666m0-7.666V16m3.57 2.167h1.494m-1.494 0V16m0 2.167v7.666m1.494-7.666h5.852m-5.852 0V16m0 2.167v7.666m-6.724 0h1.66M15.987 16h1.66m0 9.833h3.57M17.646 16h3.57m0 0h1.494m-1.494 9.833h1.494M28.562 16H22.71m0 9.833h5.852m-12.576 1.75v2.5m0-2.5h6.807m-6.807 2.5h-.415m.415 0h6.807m-7.222 0l.747 1.417v.75m-.747-2.167h1.577m11.414-2.5h-5.769m0 0v2.5m5.77 0h-5.77M15.571 48l.498-.917v-2.75l-.664-.666h.913V32.25M18.808 48l-.497-.917v-2.75l.664-.666h-.913V32.25m-.83-2.167h1.577l-.747 1.417v.75m-1.744 0h1.744M20.22 48l.498-.917v-2.75l-.664-.666h.913V32.25m.83-2.167H20.22l.747 1.417v.75M23.457 48l-.498-.917v-2.75l.664-.666h-.913V32.25m-.83-2.167h1.577L22.71 31.5v.75m-1.743 0h1.743m19.632-14.083L43.919 16h-2.905m1.328 2.167v7.666m0-7.666h-1.328m1.328 7.666h.747l-.581.917H44.5v.417l-.47.416m-1.688-1.75h-1.328m-12.576 5.75h4.524V48h9.38V29.083l1.689-1.5m0 0h-3.017m0-9.416h-1.66m1.66 0v7.666m0-7.666V16m-1.66 2.167h-3.57m3.57 0v7.666m0-7.666V16m-3.57 2.167H34.29m1.494 0V16m0 2.167v7.666m-1.494-7.666h-5.852m5.852 0V16m0 2.167v7.666m6.724 0h-1.66M41.013 16h-1.66m0 9.833h-3.57M39.354 16h-3.57m0 0H34.29m1.494 9.833H34.29M28.438 16h5.852m0 9.833h-5.852m12.576 1.75v2.5m0-2.5h-6.807m6.807 2.5h.415m-.415 0h-6.807m7.222 0l-.747 1.417v.75m.747-2.167H39.85m-11.413-2.5h5.769m0 0v2.5m-5.77 0h5.77M41.429 48l-.498-.917v-2.75l.664-.666h-.913V32.25M38.192 48l.497-.917v-2.75l-.664-.666h.913V32.25m.83-2.167h-1.577l.747 1.417v.75m1.744 0h-1.744M36.78 48l-.498-.917v-2.75l.664-.666h-.913V32.25m-.83-2.167h1.577l-.747 1.417v.75M33.543 48l.498-.917v-2.75l-.664-.666h.913V32.25m.83-2.167h-1.577l.747 1.417v.75m1.743 0H34.29m-2.864-10.333a2.91 2.91 0 01-2.905 2.916 2.911 2.911 0 01-2.906-2.916A2.911 2.911 0 0128.521 19a2.911 2.911 0 012.905 2.917z" stroke="#fff" stroke-width="2"/></g><path d="M73.956 21h1.936l3.136-8.64h-1.936l-2.168 6.264-2.176-6.264H70.82L73.956 21zm7.168-9.952h1.928V9.28h-1.928v1.768zm0 9.952h1.928v-8.64h-1.928V21zm8.16.24c1.115 0 1.987-.248 2.616-.744.635-.496.952-1.179.952-2.048 0-.672-.213-1.2-.64-1.584-.421-.384-1.15-.71-2.184-.976a20.81 20.81 0 01-1.52-.432c-.336-.117-.56-.235-.672-.352a.592.592 0 01-.168-.424c0-.288.139-.512.416-.672.278-.165.643-.237 1.096-.216.47.027.845.147 1.128.36.288.213.459.504.512.872l1.968-.352c-.106-.779-.488-1.397-1.144-1.856-.656-.464-1.488-.696-2.496-.696-1.03 0-1.853.24-2.472.72-.618.48-.928 1.125-.928 1.936 0 .645.216 1.155.648 1.528.438.373 1.198.701 2.28.984.65.17 1.13.315 1.44.432.315.112.52.227.616.344.096.117.144.275.144.472 0 .32-.128.573-.384.76-.256.181-.613.272-1.072.272-.528 0-.968-.123-1.32-.368a1.63 1.63 0 01-.664-1.008l-1.968.304c.144.87.55 1.544 1.216 2.024.667.48 1.534.72 2.6.72zm5.98-10.192h1.928V9.28h-1.928v1.768zm0 9.952h1.928v-8.64h-1.928V21zm9.889 0v-1.616a6.182 6.182 0 01-1.44.064c-.422-.037-.728-.216-.92-.536-.102-.165-.158-.379-.168-.64a41.49 41.49 0 01-.008-.912v-3.488h2.536V12.36h-2.536v-2.4h-1.92v2.4h-1.568v1.512h1.568v3.6c0 .496.005.939.016 1.328.01.384.114.763.312 1.136.224.41.552.712.984.904.432.187.92.285 1.464.296a7.878 7.878 0 001.68-.136zm2.678 0h1.976v-1.976h-1.976V21zM75.372 39.24c.965 0 1.781-.235 2.448-.704.667-.475 1.133-1.152 1.4-2.032l-1.968-.44c-.15.443-.373.781-.672 1.016-.293.235-.696.352-1.208.352-.725 0-1.272-.253-1.64-.76-.363-.507-.547-1.17-.552-1.992.005-.795.181-1.45.528-1.968.352-.523.907-.784 1.664-.784.443 0 .837.13 1.184.392.347.256.595.616.744 1.08l1.92-.52c-.203-.853-.645-1.525-1.328-2.016-.683-.496-1.515-.744-2.496-.744-.875 0-1.63.197-2.264.592a3.924 3.924 0 00-1.472 1.616c-.341.683-.515 1.467-.52 2.352.005.87.173 1.648.504 2.336a3.942 3.942 0 001.448 1.632c.63.395 1.39.592 2.28.592zm5.935-.24h1.952v-4.44c0-.699.099-1.237.296-1.616.203-.384.459-.648.768-.792a2.21 2.21 0 01.96-.224c.459 0 .824.101 1.096.304.272.197.472.45.6.76.133.304.219.621.256.952.043.33.064.63.064.896V39h1.952v-4.824c0-.203-.019-.472-.056-.808a5.2 5.2 0 00-.224-1.064 3.55 3.55 0 00-.544-1.056 2.675 2.675 0 00-1-.816c-.416-.213-.941-.32-1.576-.32-.624 0-1.173.11-1.648.328-.47.213-.861.507-1.176.88v-3.84h-1.72V39zM92 29.048h1.928V27.28H92v1.768zM92 39h1.928v-8.64H92V39zm8.16.24c1.115 0 1.987-.248 2.616-.744.635-.496.952-1.179.952-2.048 0-.672-.213-1.2-.64-1.584-.421-.384-1.149-.71-2.184-.976a20.804 20.804 0 01-1.52-.432c-.336-.117-.56-.235-.672-.352a.592.592 0 01-.168-.424c0-.288.139-.512.416-.672.278-.165.643-.237 1.096-.216.469.027.845.147 1.128.36.288.213.459.504.512.872l1.968-.352c-.107-.779-.488-1.397-1.144-1.856-.656-.464-1.488-.696-2.496-.696-1.03 0-1.853.24-2.472.72-.618.48-.928 1.125-.928 1.936 0 .645.216 1.155.648 1.528.438.373 1.198.701 2.28.984.651.17 1.131.315 1.44.432.315.112.52.227.616.344.096.117.144.275.144.472 0 .32-.128.573-.384.76-.256.181-.613.272-1.072.272-.528 0-.968-.123-1.32-.368a1.63 1.63 0 01-.664-1.008l-1.968.304c.144.87.55 1.544 1.216 2.024.667.48 1.534.72 2.6.72zm5.98-10.192h1.928V27.28h-1.928v1.768zm0 9.952h1.928v-8.64h-1.928V39zm4.809 0h1.952v-4.44c0-.699.098-1.237.296-1.616.202-.384.458-.648.768-.792.314-.15.634-.224.96-.224.458 0 .824.101 1.096.304.272.197.472.45.6.76.133.304.218.621.256.952.042.33.064.63.064.896V39h1.952v-4.824c0-.203-.019-.472-.056-.808a5.227 5.227 0 00-.224-1.064 3.577 3.577 0 00-.544-1.056 2.683 2.683 0 00-1-.816c-.416-.213-.942-.32-1.576-.32-.624 0-1.174.11-1.648.328-.47.213-.862.507-1.176.88v-.96h-1.72V39zm12.947.24c.688 0 1.272-.112 1.752-.336.486-.23.912-.584 1.28-1.064V39h1.688v-5.304c0-.373-.016-.717-.048-1.032a2.621 2.621 0 00-.28-.936 2.51 2.51 0 00-1.304-1.232c-.581-.25-1.256-.376-2.024-.376-1.013 0-1.821.221-2.424.664a3.262 3.262 0 00-1.224 1.76l1.76.552c.144-.443.398-.755.76-.936a2.495 2.495 0 011.128-.272c.587 0 1.019.12 1.296.36.278.235.435.6.472 1.096-.757.112-1.461.221-2.112.328a10.62 10.62 0 00-1.648.376c-.682.235-1.181.568-1.496 1-.314.427-.472.955-.472 1.584 0 .475.11.91.328 1.304.224.395.552.712.984.952.432.235.96.352 1.584.352zm.384-1.536c-.453 0-.8-.104-1.04-.312a1.005 1.005 0 01-.352-.784c0-.283.091-.512.272-.688.187-.176.446-.325.776-.448a7.75 7.75 0 011.096-.264c.427-.08.984-.173 1.672-.28a10.9 10.9 0 01-.04.68 2.277 2.277 0 01-.152.664 1.96 1.96 0 01-.376.632 2.175 2.175 0 01-.736.568c-.309.155-.682.232-1.12.232zm10.159 1.544c.624 0 1.171-.107 1.64-.32a3.364 3.364 0 001.184-.888V39h1.704v-8.64h-1.936v4.44c0 .699-.101 1.24-.304 1.624-.197.379-.451.643-.76.792a2.248 2.248 0 01-.96.216c-.459 0-.824-.099-1.096-.296a1.87 1.87 0 01-.608-.76 3.77 3.77 0 01-.256-.96 8.138 8.138 0 01-.056-.896v-4.16h-1.952v4.824c0 .203.016.472.048.808.037.336.115.69.232 1.064.117.373.299.728.544 1.064.245.33.576.603.992.816.421.208.949.312 1.584.312z" fill="#252529"/><defs><radialGradient id="paint0_radial" cx="0" cy="0" r="1" gradientUnits="userSpaceOnUse" gradientTransform="matrix(50.00004 -46.5 50.37496 54.16667 2 48)"><stop stop-color="#7EBDE9"/><stop offset=".438" stop-color="#F7CC00"/><stop offset="1" stop-color="#E5201B"/></radialGradient><clipPath id="clip0"><path fill="#fff" transform="translate(2.5)" d="M0 0h52v48H0z"/></clipPath></defs></svg>