<svg width="90" height="90" fill="none" xmlns="http://www.w3.org/2000/svg"><path d="M86 43L44.5 66.9 4 43v4c0 1 .5 2 1.4 2.5l35.2 20.4c2.4 1.4 5.3 1.4 7.7 0L84.6 49c.9-.5 1.4-1.5 1.4-2.5v-3.6.1z" fill="url(#paint0_linear)"/><path d="M45.6 66.8L4 43v4c0 1 .5 2 1.4 2.5l35.2 20.4c1 .6 2.7 1.1 4.6 1l.4-4.1z" fill="url(#paint1_linear)"/><path d="M86 42.9v.298c-.1.794-.5 1.587-1.298 2.083l-2.695 1.488L48.37 66.107a6.898 6.898 0 01-6.788 0L5.348 45.281c-1.797-.992-1.797-3.57 0-4.562L41.58 19.892a6.899 6.899 0 016.788 0l34.337 19.736 1.996 1.09c.799.497 1.298 1.29 1.298 2.183z" fill="url(#paint2_linear)"/><path d="M86 43.27L85.5 45 81 48.97l-14-5.7 6.4-3.7c2.158.548 6.6.2 12.6 3.7z" fill="url(#paint3_linear)"/><path d="M73.5 26.57v13c0 .1-.1.3-.2.4l-5.5 3.2c-.4.2-.8.2-1.2 0l-5.3-3.1c-.1-.1-.2-.2-.2-.4v-13l6.1 3.6 1.7-1 4.1-2.4.5-.3z" fill="url(#paint4_linear)"/><path d="M67.3 30.27l-6.3-3.6v13c0 .2.1.3.2.4l5.3 3.1c.2.1.4.2.7.1l.1-13z" fill="url(#paint5_linear)"/><path d="M67.8 23.17l5.5 3.2c.3.2.3.5 0 .7l-5.5 3.1c-.3.2-.7.2-1 0l-5.5-3.2c-.3-.2-.3-.5 0-.7l5.5-3.2c.3-.1.7-.1 1 .1z" fill="url(#paint6_linear)"/><path d="M73.5 26.87v4.2l-4.3-1.7-.3-.1-1.7-.7 3.4-2 2.4.3h.5z" fill="url(#paint7_linear)"/><path d="M70.6 22.87l-3.3 1.9-3.2-1.9v3.7c0 .1 0 .2.1.2l2.8 1.6c.2.1.4.1.6 0l2.9-1.7c.1 0 .1-.1.1-.2v-3.6z" fill="url(#paint8_linear)"/><path d="M67.4 24.77l-3.3-1.9v3.7c0 .1 0 .2.1.2l2.8 1.6c.1 0 .2.1.4.1v-3.7z" fill="url(#paint9_linear)"/><path d="M67.6 21.07l2.9 1.7c.1.1.1.3 0 .4l-2.9 1.7c-.2.1-.4.1-.5 0l-2.9-1.7c-.1-.1-.1-.3 0-.4l2.9-1.7c.1-.1.4-.1.5 0z" fill="url(#paint10_linear)"/><g opacity=".8" fill="#fff"><path opacity=".05" d="M42.99 19.375c0 2.625-2.103 4.77-4.723 4.77-2.6 0-4.722-2.145-4.722-4.77 0-2.646 2.123-4.77 4.722-4.77 2.62 0 4.723 2.124 4.723 4.77z"/><path opacity=".1" d="M42.117 19.435c0 2.145-1.726 3.888-3.85 3.888-2.123 0-3.85-1.744-3.85-3.888 0-2.145 1.727-3.888 3.85-3.888 2.124 0 3.85 1.743 3.85 3.888z"/><path opacity=".15" d="M41.244 19.495c0 1.664-1.33 3.006-2.977 3.006-1.647 0-2.976-1.342-2.976-3.006 0-1.664 1.33-3.006 2.977-3.006 1.646 0 2.976 1.342 2.976 3.006z"/><path opacity=".2" d="M40.37 19.555c0 1.163-.932 2.125-2.102 2.125a2.115 2.115 0 01-2.104-2.125c0-1.182.953-2.124 2.103-2.124 1.171 0 2.104.942 2.104 2.124z"/><path opacity=".25" d="M39.498 19.615c0 .682-.556 1.243-1.23 1.243a1.243 1.243 0 010-2.485c.674 0 1.23.54 1.23 1.242z"/><path opacity=".3" d="M38.625 19.675a.357.357 0 11-.715 0 .357.357 0 11.715 0z"/></g><path opacity=".1" d="M24 46.813l17.958 10.182 19.169-10.803-18.91-10.803L24 46.813z" fill="#000"/><path d="M77.5 48.995l-23.5 14-14-7-8.5-5.5-4.5-4 13.857-16.5 15.357 1.755.286 9.745c2.857 1.755 7 2.5 21 7.5z" fill="url(#paint11_linear)"/><path d="M60.432 24.887v-.421c0-.06-.02-.14-.02-.2s-.02-.141-.039-.221c-.02-.06-.02-.14-.04-.2-.02-.08-.02-.141-.04-.221 0-.02-.02-.06-.02-.08v-.04c0-.04-.02-.06-.02-.1-.019-.08-.039-.14-.059-.221-.02-.06-.04-.1-.04-.16 0-.02 0-.02-.02-.04v-.02c-.019-.08-.039-.14-.059-.221a.98.98 0 00-.08-.22c0-.02 0-.02-.019-.04 0-.02 0-.02-.02-.04a.996.996 0 01-.06-.141c-.02-.06-.059-.14-.079-.2-.02-.04-.04-.1-.06-.14 0 0 0-.02-.019-.02 0-.02 0-.02-.02-.04a.938.938 0 00-.1-.201c-.039-.08-.059-.14-.098-.22 0-.02-.02-.02-.02-.04s-.02-.02-.02-.04c-.04-.061-.06-.121-.1-.181-.039-.08-.079-.14-.118-.22-.02-.04-.04-.06-.06-.101 0-.02-.02-.04-.02-.06l-.119-.18c-.06-.08-.099-.18-.159-.261 0-.02-.02-.02-.02-.04a4.008 4.008 0 00-.257-.36l-.179-.241c-.06-.06-.1-.14-.159-.2-.06-.061-.099-.121-.158-.181-.06-.06-.1-.12-.16-.18l-.019-.02c0-.02-.02-.02-.02-.04l-.119-.121-.178-.18-.06-.06-.04-.04c-.04-.02-.06-.06-.079-.08-.06-.06-.12-.101-.179-.161-.02-.02-.06-.04-.079-.06-.02 0-.02-.02-.04-.02l-.06-.06c-.059-.04-.118-.1-.178-.14-.04-.04-.099-.06-.139-.1h-.02c-.02 0-.02-.02-.02-.02l-.178-.121a.798.798 0 00-.179-.1c-.02 0-.02-.02-.04-.02-.039-.02-.079-.04-.138-.08-.06-.04-.12-.06-.179-.08l-.119-.06h-.02c-.02 0-.02-.021-.04-.021-.059-.02-.118-.04-.158-.06a1.29 1.29 0 01-.159-.06h-.04c-.04-.02-.079-.02-.119-.04-.06-.02-.119-.04-.178-.04-.02 0-.06-.02-.08-.02h-.04c-.02 0-.039 0-.059-.02-.06-.02-.119-.02-.178-.02-.04 0-.08 0-.1-.02h-.496c-.079 0-.158.02-.238.04-.04 0-.06.02-.099.02l-.179.06h-.02c-.02 0-.04.02-.059.02-.1.04-.178.08-.258.12l-1.865 1.102c.08-.06.178-.1.278-.14.02 0 .02 0 .04-.02a.968.968 0 01.257-.08c.02 0 .04-.02.06-.02.099-.02.198-.04.317-.04h.417c.12.02.238.02.337.06h.04c.12.02.238.06.357.1h.02c.12.04.258.1.397.16.02 0 .02.02.04.02.139.06.277.14.397.22.138.081.277.161.416.262.02 0 .02.02.04.02.119.08.238.18.357.28.02.02.04.04.06.04a5.139 5.139 0 01.377.34c.119.121.238.221.337.342l.02.02c.119.12.238.26.357.4l.02.02c.119.14.218.281.317.422 0 .02.02.02.02.04.1.12.179.26.258.38.06.08.12.18.179.281.04.08.099.14.139.22l.06.12c.079.12.138.261.198.381 0 .02.02.04.02.04.079.16.158.321.218.482 0 0 0 .02.02.02.06.16.138.32.198.48v.02c.06.161.119.341.159.502v.04l.119.48c0 .02 0 .02.02.041.04.16.079.34.099.501.02.16.04.32.06.501v.04c.02.16.02.32.02.481 0 .16 0 .32-.02.461v.04c-.02.14-.04.26-.06.401v.04c-.02.12-.06.24-.08.34 0 .021-.02.041-.02.061l-.118.3s0 .02-.02.02c-.06.101-.1.221-.159.301 0 .02-.02.02-.02.04-.06.08-.1.14-.159.22a33.577 33.577 0 00-.218.221l-.06.06c-.079.06-.158.12-.237.16l1.865-1.102c.08-.06.158-.1.238-.16l.06-.06c.059-.04.099-.1.158-.16l.06-.06a.89.89 0 00.158-.22c0-.02.02-.02.02-.041.06-.08.1-.18.159-.28v-.02s0-.02.02-.02c.02-.06.06-.12.08-.201.02-.04.02-.06.039-.1 0-.02.02-.04.02-.06 0-.02.02-.04.02-.06.02-.08.04-.14.06-.221 0-.02.019-.06.019-.08v-.04c0-.02.02-.06.02-.08.02-.06.02-.14.02-.2 0-.04 0-.081.02-.121v-.08c0-.06 0-.12.02-.2v-.221c-.02-.02-.02-.08-.02-.14z" fill="url(#paint12_linear)"/><path d="M54.52 18.895c2.282 1.322 4.127 4.57 4.127 7.215 0 2.646-1.865 3.728-4.147 2.385-2.282-1.323-4.127-4.55-4.127-7.215.02-2.646 1.865-3.728 4.147-2.386z" fill="#4D4D54"/><path d="M55.214 21.299c0-3.367-1.191-5.732-3.096-6.835l-4.98-2.926c1.904 1.123 3.075 3.487 3.095 6.855l-.02 2.806v.721l4.98 2.926v-.721l.02-2.826z" fill="#C3C5C5"/><path d="M55.214 21.299l-.02 2.806v.721l.654-.38v-3.528c-.02-4.67-2.162-7.516-5.357-7.957v.862c2.837.581 4.703 3.227 4.723 7.476z" fill="#BAC1C5"/><path d="M58.885 27.552c0-.08 0-.18-.02-.26v-.26c0-.081-.02-.181-.02-.261-.02-.08-.02-.18-.04-.26-.02-.081-.02-.161-.04-.261-.02-.08-.04-.18-.059-.281 0-.04-.02-.06-.02-.1 0-.02 0-.04-.02-.06 0-.04-.02-.08-.02-.12-.02-.1-.04-.181-.079-.281-.02-.06-.04-.14-.06-.2 0-.02 0-.04-.02-.04 0-.02 0-.02-.02-.04-.019-.101-.059-.181-.078-.282-.02-.08-.06-.18-.1-.26 0-.02-.02-.04-.02-.04 0-.02 0-.02-.02-.04-.02-.06-.04-.12-.059-.16-.04-.08-.06-.18-.1-.261-.019-.06-.059-.12-.079-.18 0-.02 0-.02-.02-.04 0-.02-.02-.02-.02-.04-.039-.08-.079-.161-.118-.261-.04-.1-.08-.18-.14-.28 0-.02-.019-.02-.019-.04s-.02-.041-.02-.041l-.119-.24c-.06-.1-.1-.18-.159-.281l-.06-.12c-.019-.02-.019-.04-.039-.06-.04-.08-.1-.16-.139-.241-.06-.1-.139-.22-.198-.32-.02-.02-.02-.04-.04-.06-.1-.161-.218-.322-.317-.462l-.239-.3c-.059-.08-.138-.16-.198-.261-.06-.08-.139-.16-.198-.24-.06-.08-.14-.16-.199-.22l-.04-.041-.04-.04c-.039-.06-.098-.1-.138-.16l-.218-.22a.271.271 0 00-.08-.061c-.02-.02-.04-.02-.04-.04a.526.526 0 00-.119-.1c-.079-.06-.158-.14-.238-.2-.04-.04-.079-.06-.099-.08l-.04-.041c-.02-.02-.059-.04-.079-.06l-.238-.18-.179-.12-.02-.02c-.02 0-.02-.02-.04-.02-.078-.041-.138-.101-.217-.141-.08-.04-.14-.1-.219-.14-.02-.02-.04-.02-.06-.04-.059-.04-.118-.06-.158-.1-.08-.04-.139-.08-.218-.121-.04-.02-.1-.04-.14-.06h-.019c-.02 0-.04-.02-.04-.02-.079-.04-.139-.06-.198-.08-.08-.02-.139-.06-.218-.08-.02 0-.02 0-.04-.02-.02 0-.02 0-.04-.02a.365.365 0 00-.139-.04c-.079-.02-.139-.04-.218-.06-.04 0-.06-.02-.1-.02h-.039c-.02 0-.04-.02-.06-.02-.079-.021-.158-.021-.218-.041-.04 0-.099 0-.139-.02h-.615c-.099 0-.198.02-.297.04-.04 0-.08.02-.12.04l-.238.06h-.02c-.02 0-.039.02-.059.02-.119.04-.218.1-.337.16l-2.362 1.384c.12-.06.219-.12.338-.16.02 0 .02-.02.04-.02.099-.04.218-.06.317-.101.02 0 .04-.02.08-.02.118-.02.257-.04.396-.06h.516c.139.02.278.04.437.06h.04c.158.04.297.08.456.14h.02c.158.06.317.12.496.2.02 0 .02.02.04.02.158.08.337.161.515.261.179.1.358.22.516.341l.04.04c.159.1.298.22.456.34l.06.06c.139.121.297.241.436.382l.06.06c.159.14.298.28.436.44l.02.02c.16.161.298.321.437.502l.02.02c.139.18.278.34.416.521.02.02.02.04.04.04.12.16.218.32.337.481.08.12.14.22.219.34.06.101.119.181.158.281.04.06.06.1.08.16.08.161.178.322.258.482 0 .02.02.04.02.06.099.2.198.4.278.601 0 .02.02.02.02.04l.237.602c0 .02 0 .02.02.04.08.2.14.42.218.621 0 .02 0 .02.02.04.06.2.12.401.16.601 0 .02 0 .04.019.06.04.2.08.421.119.622.04.2.06.42.08.621v.06c.02.2.02.401.02.602 0 .2-.02.4-.02.58v.04c-.02.181-.04.342-.08.502 0 .02 0 .04-.02.06-.04.16-.06.3-.119.441 0 .02-.02.04-.02.08-.04.14-.099.26-.139.381 0 0 0 .02-.02.04-.059.14-.138.26-.218.38 0 .02-.02.02-.04.041-.059.1-.138.18-.198.28l-.08.08-.198.201c-.02.02-.06.04-.079.08-.1.08-.199.14-.298.22l2.362-1.382c.099-.06.198-.14.297-.22.02-.02.06-.04.08-.08a.92.92 0 00.198-.201l.08-.08c.079-.08.138-.18.198-.281l.04-.04c.079-.12.139-.24.198-.36v-.02c0-.02 0-.02.02-.04.04-.081.08-.161.1-.241.019-.04.019-.08.039-.12 0-.02.02-.06.02-.08 0-.02.02-.041.02-.061.02-.08.04-.18.059-.26 0-.04.02-.06.02-.1 0-.02 0-.04.02-.06 0-.041.02-.061.02-.101.02-.08.02-.16.04-.26 0-.04.02-.1.02-.141v-.1c0-.08.019-.16.019-.24v-.281c.04-.04.04-.12.04-.2z" fill="url(#paint13_linear)"/><path d="M51.5 19.995c2.877 1.684 5.199 5.752 5.199 9.1 0 3.346-2.342 4.69-5.219 3.006-2.877-1.684-5.199-5.732-5.199-9.08 0-3.347 2.342-4.69 5.219-3.026z" fill="#37373D"/><path d="M52.455 49.519l4.485-2.646.06-21.686-4.485 2.646-.06 21.686z" fill="#E5201B"/><path d="M52.515 27.833l4.484-2.646-14.247-8.297-.675.4v.361L39.3 19.315l-.337-.2-.695.4 14.248 8.318z" fill="#E5201B"/><path d="M38.267 19.515l-.06 21.686 14.248 8.318.06-21.686-14.248-8.318z" fill="#B6110D"/><path d="M39.3 19.315l13.215 7.656 3.115-1.784-13.553-7.536-2.778 1.664z" fill="#E7E8E9"/><path d="M42.077 17.29v.361l13.176 7.757.377-.22-13.553-7.898z" fill="#B6110D"/><path d="M46.939 52.165l4.484-2.626.06-21.686-4.485 2.625-.06 21.687zm.059-21.687l4.485-2.625-14.247-8.318-.675.401v.36l-2.778 1.664-.338-.2-.694.42 14.247 8.298z" fill="#F7CC00"/><path d="M32.75 22.18l-.059 21.687 14.248 8.298.06-21.687-14.248-8.297z" fill="#E1A200"/><path d="M33.783 21.96l13.215 7.677 3.116-1.784-13.553-7.556-2.778 1.663z" fill="#E7E8E9"/><path d="M36.56 19.936v.36l13.177 7.777.377-.22-13.553-7.917z" fill="#E1A200"/><path d="M41.164 54.91l4.505-2.645.06-21.666-4.485 2.625-.08 21.687z" fill="#7EBDE9"/><path d="M41.244 33.224l4.484-2.625-14.247-8.318-.675.4v.362l-2.778 1.663-.337-.2-.695.4 14.248 8.318z" fill="#7EBDE9"/><path d="M26.996 24.907l-.079 21.686 14.247 8.317.08-21.686-14.248-8.317z" fill="#6A98B8"/><path d="M28.028 24.706l13.216 7.656 3.115-1.763-13.553-7.556-2.778 1.663z" fill="#E7E8E9"/><path d="M30.806 22.682v.36L43.962 30.8l.397-.2-13.553-7.917z" fill="#6A98B8"/><path d="M38.624 38.836c0-.08 0-.16-.02-.26v-.26c0-.081-.02-.181-.02-.261 0-.08-.019-.18-.039-.261-.02-.08-.02-.18-.04-.26-.02-.1-.04-.18-.06-.281 0-.04-.019-.06-.019-.1 0-.02 0-.04-.02-.06 0-.04-.02-.08-.02-.12a1.533 1.533 0 00-.079-.281c-.02-.06-.04-.14-.06-.2 0-.02 0-.04-.02-.04 0-.02 0-.02-.02-.04-.019-.101-.059-.181-.079-.282-.02-.08-.06-.18-.099-.26 0-.02-.02-.04-.02-.04 0-.02 0-.02-.02-.04-.02-.06-.04-.12-.059-.16-.04-.08-.06-.181-.1-.261-.019-.06-.059-.12-.079-.18 0-.02 0-.02-.02-.04 0-.02-.02-.02-.02-.04-.039-.08-.079-.181-.118-.261-.04-.1-.08-.18-.14-.28 0-.02-.02-.02-.02-.04 0-.021-.019-.041-.019-.041l-.119-.24c-.06-.1-.1-.18-.159-.281l-.06-.12c-.02-.02-.02-.04-.039-.06-.04-.08-.1-.16-.139-.241-.06-.1-.139-.22-.198-.32-.02-.02-.02-.04-.04-.06-.1-.161-.218-.322-.317-.462l-.239-.3c-.06-.08-.139-.16-.198-.261-.06-.08-.139-.16-.198-.24-.06-.08-.14-.16-.199-.221 0-.02-.02-.02-.04-.04l-.04-.04c-.039-.06-.099-.1-.138-.16-.08-.08-.14-.14-.218-.221a.276.276 0 00-.08-.06c-.02-.02-.04-.02-.04-.04a.528.528 0 00-.119-.1c-.079-.06-.158-.14-.238-.2-.04-.04-.079-.061-.099-.081l-.04-.04c-.02-.02-.06-.04-.079-.06l-.238-.18-.179-.12h-.02c-.02 0-.02-.02-.04-.02-.079-.041-.138-.101-.218-.141-.079-.04-.138-.1-.218-.14-.02-.02-.04-.02-.06-.04-.059-.04-.118-.06-.158-.1-.08-.04-.139-.081-.218-.121a.319.319 0 01-.14-.08h-.019c-.02 0-.04-.02-.04-.02a1.35 1.35 0 00-.198-.08c-.08-.02-.14-.06-.218-.08-.02 0-.02 0-.04-.02-.02 0-.02 0-.04-.02a.366.366 0 00-.139-.04c-.08-.02-.139-.04-.218-.06-.04 0-.06-.021-.1-.021h-.039c-.02 0-.04-.02-.06-.02-.079-.02-.158-.02-.237-.04-.04 0-.08 0-.14-.02h-.614c-.099.02-.198.02-.297.04a.28.28 0 00-.12.04l-.237.06h-.02c-.02 0-.04.02-.06.02-.119.04-.218.1-.337.16l-2.361 1.384c.119-.06.218-.12.337-.16.02 0 .02-.02.04-.02.099-.041.218-.061.317-.101.02 0 .04-.02.08-.02.119-.02.257-.04.396-.04h.516c.14.02.278.04.437.06h.04c.158.04.297.08.456.12h.04c.158.06.317.12.496.2.02 0 .02.02.04.02.158.08.337.161.515.261.179.1.338.22.516.34l.04.041c.159.1.297.22.456.34l.06.06c.139.121.297.241.436.382l.06.06c.139.14.297.28.436.44l.02.02c.159.161.298.322.437.502l.02.02c.139.18.277.34.416.521.02.02.02.04.04.04.12.16.218.32.337.481.08.12.14.22.219.34.06.101.119.181.158.281.02.06.06.1.08.16.08.161.178.321.258.482 0 .02.02.04.02.06.099.2.198.4.277.601 0 .02 0 .02.02.04.08.2.159.401.238.622 0 .02 0 .02.02.04.08.2.14.42.218.621 0 .02 0 .02.02.04.06.2.12.4.16.601 0 .02 0 .04.019.06.04.2.08.421.119.622.04.2.06.42.08.621v.06c.02.2.02.401.02.602 0 .2-.02.4-.02.58v.04c-.02.181-.04.342-.08.502 0 .02 0 .04-.02.06-.04.16-.06.3-.119.441 0 .02-.02.04-.02.08-.04.14-.099.26-.139.381 0 .02 0 .02-.02.04-.06.14-.138.26-.218.38 0 .02-.02.02-.04.041-.059.1-.138.18-.198.28l-.08.08-.198.201c-.02.02-.06.04-.08.08-.098.08-.197.14-.297.22l2.362-1.382c.099-.06.198-.14.297-.22.02-.02.06-.04.08-.06a.943.943 0 00.198-.201l.08-.08c.079-.08.138-.18.198-.28 0-.021.02-.021.04-.041.079-.12.138-.24.198-.36v-.02c0-.02.02-.02.02-.04.04-.081.08-.161.099-.241.02-.04.02-.08.04-.14 0-.02.02-.04.02-.08 0-.02.02-.041.02-.061.02-.08.04-.18.079-.26 0-.04.02-.06.02-.1 0-.02 0-.04.02-.06 0-.041.02-.061.02-.101.02-.08.02-.16.039-.24 0-.04.02-.1.02-.14v-.121c0-.08.02-.16.02-.24v-.281c.04-.06.02-.14.02-.22z" fill="url(#paint14_linear)"/><path d="M31.5 31.495c2.877 1.683 4.783 5.638 4.783 8.965 0 3.347-2.342 4.69-5.219 3.006-2.877-1.684-5.199-5.732-5.199-9.08.02-3.346 2.758-4.575 5.635-2.891z" fill="#37373D"/><path d="M46.046 13.743c.06-.02.139-.06.198-.08.179-.06.338-.14.516-.2.04-.02.06-.02.1-.04.198-.081.416-.141.615-.181.119-.04.258-.06.377-.1.04-.02.08-.02.139-.04.178-.04.337-.06.496-.1h.06c.138-.02.277-.04.416-.04.04 0 .1 0 .139-.02.1 0 .198-.02.278-.02h.714l.556.06c.04 0 .099.02.139.02.198.04.377.08.575.14.179.06.357.12.536.2l.119.06c.159.06.297.14.436.22l.12.06-3.513-2.064-1.528-.902c-.04-.02-.06-.04-.099-.04-.119-.06-.258-.14-.377-.18-.02-.02-.06-.02-.08-.04-.02 0-.04-.02-.059-.02-.159-.06-.337-.12-.516-.18h-.02c-.178-.06-.377-.1-.555-.12-.02 0-.04-.02-.06-.02-.04 0-.06 0-.099-.02a33.53 33.53 0 00-.496-.061c-.04 0-.06 0-.1-.02h-.039a3.363 3.363 0 00-.635 0h-.06c-.06 0-.138.02-.198.02s-.1 0-.159.02c-.139.02-.277.02-.416.04h-.06c-.159.02-.337.06-.496.1a.7.7 0 01-.198.04c-.1.02-.199.04-.298.08h-.02c-.198.06-.397.12-.615.201-.04.02-.06.02-.1.04-.178.06-.357.14-.535.2-.02 0-.04.02-.06.02-.04.02-.06.04-.099.04-.178.08-.377.161-.575.261-.06.02-.12.06-.179.08-.238.12-.476.24-.714.381-.298.18-.596.36-.893.561-.04.04-.1.06-.14.08a22.2 22.2 0 00-.833.622c-.04.04-.099.08-.138.12-.278.22-.556.461-.834.702-.02.02-.04.02-.04.04-.277.24-.535.48-.793.741l-.06.06-.04.04c-.396.381-.773.802-1.13 1.223l-.06.06c-.02.02-.04.06-.06.08-.277.321-.555.662-.813 1.002l-.02.02c-.02.02-.04.06-.06.08a14.2 14.2 0 00-.635.883c-.02.02-.04.04-.04.06l-.02.02c-.198.28-.376.581-.575.862-.02.02-.04.06-.06.08-.019.04-.059.08-.078.14-.16.24-.298.481-.437.722-.02.04-.04.06-.06.1 0 .02-.02.02-.02.04l-.476.842c-.02.02-.02.04-.04.06a.984.984 0 00-.059.14c-.119.24-.238.461-.357.702l-.06.12c-.04.06-.04.08-.06.1-.138.3-.277.601-.396.882v.02c-.02.02-.02.04-.02.06-.119.26-.218.541-.337.802-.02.04-.04.1-.06.14-.02.04-.02.08-.04.12-.118.321-.238.622-.337.942v.02c0 .02-.02.04-.02.04-.099.321-.198.662-.297.983-.02.04-.02.08-.04.12 0 .02 0 .04-.02.06-.099.38-.198.762-.277 1.142 0 .04-.02.06-.02.1-.02.04-.02.08-.02.14-.04.161-.06.302-.08.462-.02.1-.04.2-.06.28-.019.16-.059.321-.079.482 0 .06-.02.14-.02.2v.04c-.039.32-.079.661-.099.982 0 .06 0 .12-.02.2-.02.341-.04.662-.04.983v3.527l4.982 2.926v-3.527c0-.32.02-.642.04-.982 0-.08 0-.14.02-.22.019-.321.059-.642.098-.963.02-.1.02-.2.04-.28l.06-.441.06-.3c.019-.141.059-.302.078-.442l.06-.24c.08-.381.179-.762.278-1.143l.06-.18c.099-.32.178-.641.297-.962.02-.04.02-.06.04-.1.099-.321.218-.642.337-.942.02-.08.06-.14.08-.22.099-.261.198-.522.317-.783.02-.04.04-.1.06-.14.118-.28.257-.581.396-.862.04-.08.08-.14.1-.22l.357-.722c.02-.06.06-.12.08-.16.158-.28.317-.581.475-.862.02-.04.06-.1.08-.14.139-.24.297-.481.436-.742.04-.08.08-.14.14-.22.178-.28.376-.581.555-.862.02-.04.06-.08.099-.12.198-.301.417-.582.615-.862.02-.04.06-.08.08-.1.277-.361.555-.702.833-1.023.04-.04.06-.08.1-.1a34.126 34.126 0 011.25-1.343c.257-.24.515-.5.773-.721l.06-.06c.277-.24.535-.461.813-.682.06-.04.1-.08.159-.12.278-.22.536-.42.814-.601.06-.04.099-.06.158-.1.298-.2.576-.381.873-.562.239-.14.477-.26.715-.38.06-.04.119-.06.198-.1.179-.06.357-.141.536-.221z" fill="url(#paint15_linear)"/><path d="M44.617 14.464C38.446 18.072 32.98 26.84 33 33.994v3.5l1.12-.361-.02-.722v-2.786c-.02-6.774 4.703-15.032 10.537-18.44 2.163-1.262 4.187-1.683 5.874-1.342v-.862c-1.747-.24-3.75.24-5.894 1.483z" fill="url(#paint16_linear)"/><path d="M34.894 39.698v-.4c0-.06-.02-.141-.02-.201 0-.06-.02-.14-.02-.22-.02-.06-.02-.141-.04-.201-.02-.08-.02-.14-.039-.22 0-.02-.02-.06-.02-.08v-.04c0-.04-.02-.061-.02-.101-.02-.08-.04-.14-.06-.22-.02-.06-.039-.1-.039-.16 0-.02 0-.02-.02-.04v-.021c-.02-.08-.04-.14-.06-.22a.98.98 0 00-.079-.22c0-.021 0-.021-.02-.041 0 0 0-.02-.02-.04-.02-.04-.039-.1-.059-.14-.02-.06-.06-.14-.08-.2-.02-.04-.039-.101-.059-.141 0 0 0-.02-.02-.02 0-.02 0-.02-.02-.04a.938.938 0 00-.099-.2c-.04-.08-.06-.141-.099-.221 0 0-.02-.02-.02-.04s-.02-.02-.02-.04c-.04-.06-.06-.12-.099-.18-.04-.08-.08-.141-.119-.221-.02-.04-.04-.06-.06-.1-.02-.02-.02-.04-.02-.06l-.118-.18c-.06-.081-.1-.181-.16-.261 0-.02-.019-.02-.019-.04-.08-.12-.159-.241-.258-.361l-.178-.24c-.06-.06-.1-.141-.16-.201-.059-.06-.098-.12-.158-.18s-.1-.12-.159-.181l-.02-.02c0-.02-.02-.02-.04-.04l-.118-.12-.179-.18-.06-.06-.04-.041c-.039-.02-.059-.06-.078-.08-.06-.06-.12-.1-.18-.16-.019-.02-.059-.04-.078-.08 0 0-.02-.02-.04-.02l-.06-.06c-.06-.04-.119-.101-.178-.141-.04-.04-.1-.06-.14-.1h-.019c-.02 0-.02-.02-.02-.02l-.178-.12a.804.804 0 00-.179-.1c-.02 0-.02-.02-.04-.02-.04-.02-.08-.061-.139-.081-.06-.04-.119-.06-.178-.08l-.12-.06h-.02c-.019 0-.019-.02-.039-.02a.398.398 0 01-.159-.08c-.06-.02-.119-.04-.158-.06h-.04c-.04-.02-.08-.02-.119-.04a.584.584 0 00-.179-.04c-.02 0-.06-.02-.079-.02h-.04c-.02 0-.04 0-.06-.021-.059-.02-.118-.02-.178-.02-.04 0-.08 0-.099-.02h-.497c-.079 0-.158.02-.237.04-.04 0-.06.02-.1.02-.059.02-.118.02-.178.06h-.02c-.02 0-.04.02-.06.02-.099.04-.178.08-.257.12l-1.866 1.103c.08-.06.179-.1.278-.14.02 0 .02 0 .04-.02.08-.04.159-.06.258-.08.02 0 .04-.02.06-.02.099-.02.198-.04.317-.04h.417c.119.02.238.02.337.06h.04c.119.02.238.06.357.1h.02c.119.04.258.1.396.16.02 0 .02.02.04.02.14.06.258.14.397.22.139.08.278.16.417.261.02 0 .02.02.04.02.119.08.238.18.357.28.02.02.04.04.06.04.118.1.237.201.336.301.02.02.04.02.04.04.12.12.238.22.338.341l.02.02c.118.12.238.26.357.401l.02.02c.118.14.218.28.317.421 0 .02.02.02.02.04.099.12.178.26.258.38.06.081.119.181.178.282.04.08.1.14.14.22l.059.12c.06.12.139.26.198.381 0 .02.02.04.02.04.08.16.159.32.218.481 0 0 0 .02.02.02.08.16.139.32.199.481v.02c.059.16.119.34.158.501v.04c.04.16.1.321.12.481v.04c.039.16.079.341.098.502.02.16.04.32.06.5v.04c.02.161.02.321.02.482 0 .16 0 .32-.02.46v.04c-.02.141-.04.261-.06.402v.04a1.7 1.7 0 01-.099.34c0 .02-.02.04-.02.06l-.119.301s0 .02-.02.02c-.059.1-.099.2-.158.3 0 .02-.02.02-.02.041-.06.08-.1.14-.159.22l-.06.06c-.039.06-.099.1-.158.16l-.06.061a1.6 1.6 0 01-.238.16l1.866-1.102c.079-.04.158-.1.238-.16l.06-.06c.059-.04.099-.1.158-.16l.06-.06a.89.89 0 00.158-.221c0-.02.02-.02.02-.04.06-.08.1-.18.159-.281v-.02s0-.02.02-.02c.02-.06.06-.12.08-.2.019-.04.019-.06.039-.1 0-.02.02-.04.02-.06 0-.02.02-.041.02-.061.02-.08.04-.14.059-.22 0-.02.02-.06.02-.08v-.04c0-.02.02-.06.02-.08.02-.061.02-.141.04-.201 0-.04 0-.08.02-.12v-.08c0-.06 0-.121.019-.201v-.34z" fill="url(#paint17_linear)"/><path d="M28.941 33.726c2.282 1.323 4.127 4.57 4.127 7.216 0 2.645-1.865 3.728-4.147 2.385-2.282-1.323-4.127-4.55-4.127-7.215 0-2.646 1.845-3.708 4.147-2.386z" fill="#BAC1C5"/><path d="M30.786 39.337v-.2c0-.04 0-.06-.02-.1 0-.04 0-.06-.02-.1 0-.04-.02-.06-.02-.1 0-.04-.019-.06-.019-.1v-.061c0-.02 0-.04-.02-.04 0-.04-.02-.06-.02-.1 0-.02-.02-.04-.02-.08v-.04c-.02-.04-.02-.06-.04-.1-.019-.04-.019-.061-.039-.101v-.04c0-.02-.02-.04-.02-.06-.02-.04-.02-.06-.04-.1 0-.02-.02-.04-.02-.06v-.04c-.02-.04-.02-.06-.039-.1-.02-.041-.04-.061-.04-.101v-.04c-.02-.02-.02-.06-.04-.08-.02-.04-.039-.06-.059-.1 0-.02-.02-.02-.02-.04 0 0 0-.02-.02-.02-.02-.02-.04-.06-.06-.08a.4.4 0 00-.078-.121s0-.02-.02-.02l-.12-.18c-.02-.04-.059-.08-.079-.12-.02-.04-.04-.06-.08-.101-.019-.02-.039-.06-.078-.08-.02-.02-.04-.06-.08-.08l-.02-.02-.02-.02a16.858 16.858 0 01-.138-.14l-.02-.02-.02-.02-.04-.04c-.02-.021-.06-.041-.08-.081l-.039-.04s-.02 0-.02-.02c0 0-.02-.02-.04-.02-.02-.02-.059-.04-.079-.06-.02-.02-.04-.04-.06-.04h-.02c-.019-.02-.059-.04-.079-.06a.15.15 0 00-.079-.04s-.02 0-.02-.02c-.02-.02-.04-.02-.06-.04-.02-.02-.059-.02-.079-.04-.02 0-.04-.02-.06-.02h-.019c-.02-.021-.06-.021-.08-.041-.02 0-.059-.02-.079-.02h-.04c-.02 0-.04-.02-.059-.02-.02 0-.06-.02-.08-.02h-.079c-.02 0-.06-.02-.08-.02h-.277c-.04 0-.08 0-.119.02-.02 0-.04 0-.04.02-.02 0-.06.02-.079.02 0 0-.02 0-.02.02l-.119.06-.853.501.119-.06h.02c.04-.02.08-.02.119-.04h.02c.04 0 .099-.02.139-.02h.178c.06 0 .1.02.159.02h.02c.06.02.119.02.159.04h.02c.059.02.118.04.178.08h.02c.06.02.119.06.178.1.06.04.12.08.199.12 0 0 .02 0 .02.02.06.04.119.08.158.121l.02.02c.06.04.1.1.159.14l.02.02.159.16.02.02c.059.06.099.121.158.181v.02c.06.06.1.12.159.2 0 0 0 .02.02.02l.119.181c.02.04.06.08.08.12.019.04.039.06.059.1.02.02.02.04.04.06.04.06.059.12.099.181 0 0 0 .02.02.02.04.08.079.14.099.22v.02c.04.08.06.14.099.221v.02c.02.08.06.16.08.22v.02c.02.08.039.14.059.221v.02c.02.08.04.16.04.22a.9.9 0 01.02.221v.24c0 .08 0 .14-.02.221v.02c0 .06-.02.12-.02.18v.02c-.02.06-.02.12-.04.16v.02c-.02.04-.04.101-.06.141v.02c-.02.04-.04.1-.079.14 0 0 0 .02-.02.02-.02.04-.04.06-.08.1 0 .02-.019.02-.019.04l-.08.081c-.02 0-.02.02-.04.02-.039.02-.078.06-.118.08l.853-.5c.04-.02.08-.04.12-.081.019 0 .019-.02.039-.02.02-.02.06-.04.08-.08 0-.02.02-.02.02-.04.019-.04.059-.06.078-.1 0 0 0-.02.02-.02.02-.04.06-.08.08-.14v-.02c.02-.021.02-.061.04-.101 0-.02.02-.04.02-.04v-.04c0-.04.019-.06.019-.1v-.1c0-.02 0-.06.02-.1v-.301c.08.02.08 0 .06-.04z" fill="url(#paint18_linear)"/><path d="M28 36.495c1.052.621 1.905 2.104 1.905 3.327 0 1.223-.853 1.724-1.905 1.102-1.052-.621-1.905-2.104-1.905-3.327 0-1.222.853-1.723 1.905-1.102z" fill="#F4FAFA"/><path d="M48.5 61.495l-4.5 3-9.565-4.966 4.713-2.772 9.352 4.738z" fill="url(#paint19_linear)"/><path d="M39.148 51.629L34.436 54.4 30 51.628v5.13c0 .138 0 .276.139.276l3.88 2.218a.884.884 0 00.833 0l4.02-2.356c.138 0 .138-.139.138-.277v-4.99h.139z" fill="url(#paint20_linear)"/><path d="M34.574 54.262L30 51.63v5.128c0 .139 0 .278.139.278l3.88 2.217c.14 0 .278.139.555.139v-5.129z" fill="url(#paint21_linear)"/><path d="M34.99 49.133l4.02 2.357a.421.421 0 010 .554l-4.02 2.218c-.277.139-.554.139-.693 0l-4.02-2.356a.422.422 0 010-.555l4.02-2.356c.139 0 .416 0 .693.139z" fill="url(#paint22_linear)"/><path d="M72 52.5l-3.6 3.57-4.3-1.7-.3-.2-1.7-.6 3.4-2 2.4.3h.4l3.7.63z" fill="url(#paint23_linear)"/><path d="M65.5 47.87l-3.3 1.9-3.2-1.9v3.7c0 .1 0 .2.1.2l2.8 1.6c.2.1.4.1.6 0l2.9-1.7c.1 0 .1-.1.1-.2v-3.6z" fill="url(#paint24_linear)"/><path d="M62.3 49.77l-3.3-1.9v3.7c0 .1 0 .2.1.2l2.8 1.6c.1 0 .2.1.4.1v-3.7z" fill="url(#paint25_linear)"/><path d="M62.5 46.07l2.9 1.7c.1.1.1.3 0 .4l-2.9 1.7c-.2.1-.4.1-.5 0l-2.9-1.7c-.1-.1-.1-.3 0-.4l2.9-1.7c.1-.1.4-.1.5 0z" fill="url(#paint26_linear)"/><path d="M18.2 42.87v2.8l-2.8-1.2h-.2l-1.1-.5 2.2-1.3 1.6.2h.3z" fill="url(#paint27_linear)"/><path d="M16.3 40.27l-2.2 1.3-2.1-1.3v2.5c0 .1 0 .1.1.1l1.9 1.1c.1.1.3.1.4 0l1.9-1.1.1-.1v-2.5h-.1z" fill="url(#paint28_linear)"/><path d="M14.2 41.57l-2.2-1.3v2.5c0 .1 0 .1.1.1l1.9 1.1c.1 0 .1.1.2.1v-2.5z" fill="url(#paint29_linear)"/><path d="M14.4 39.07l1.9 1.1c.1.1.1.2 0 .2l-1.9 1.1c-.1.1-.2.1-.4 0l-1.9-1.1c-.1-.1-.1-.2 0-.2l1.9-1.1c.1-.1.3-.1.4 0z" fill="url(#paint30_linear)"/><defs><linearGradient id="paint0_linear" x1="45.355" y1="73.484" x2="45.14" y2="50.629" gradientUnits="userSpaceOnUse"><stop stop-color="#CBD7DC"/><stop offset=".345" stop-color="#BFCCD2"/><stop offset=".942" stop-color="#A6B2B8"/><stop offset="1" stop-color="#A6B2B8"/></linearGradient><linearGradient id="paint1_linear" x1="6.654" y1="59.981" x2="44.839" y2="59.981" gradientUnits="userSpaceOnUse"><stop offset=".274" stop-color="#E4EBEE"/><stop offset=".734" stop-color="#DBE4E6"/><stop offset=".961" stop-color="#C4D0D6"/></linearGradient><linearGradient id="paint2_linear" x1="3.988" y1="43" x2="86.003" y2="43" gradientUnits="userSpaceOnUse"><stop stop-color="#CCD9DE"/><stop offset=".452" stop-color="#D6E2E6"/><stop offset="1" stop-color="#DFEAED"/></linearGradient><linearGradient id="paint3_linear" x1="72.08" y1="39.645" x2="77.995" y2="49.89" gradientUnits="userSpaceOnUse"><stop stop-color="#BAC1C5"/><stop offset=".01" stop-color="#BAC1C5" stop-opacity=".987"/><stop offset=".429" stop-color="#ACBACE" stop-opacity=".46"/><stop offset=".794" stop-color="#A7B8D1" stop-opacity="0"/></linearGradient><linearGradient id="paint4_linear" x1="67.35" y1="41.594" x2="67.245" y2="30.469" gradientUnits="userSpaceOnUse"><stop stop-color="#E4EBEE"/><stop offset=".345" stop-color="#D9E0E4"/><stop offset=".942" stop-color="#BDC4C8"/><stop offset="1" stop-color="#BAC1C5"/></linearGradient><linearGradient id="paint5_linear" x1="61.478" y1="34.957" x2="67.223" y2="34.957" gradientUnits="userSpaceOnUse"><stop offset=".169" stop-color="#F5F9FA"/><stop offset=".52" stop-color="#F1F6F7"/><stop offset=".688" stop-color="#ECF2F4"/><stop offset=".802" stop-color="#EAF0F3"/><stop offset=".942" stop-color="#EAF0F5" stop-opacity=".429"/><stop offset=".993" stop-color="#EBEFFC" stop-opacity=".223"/><stop offset=".999" stop-color="#EBEFFD" stop-opacity=".2"/></linearGradient><linearGradient id="paint6_linear" x1="61.078" y1="26.671" x2="73.443" y2="26.671" gradientUnits="userSpaceOnUse"><stop stop-color="#E4EBEE"/><stop offset=".452" stop-color="#F0F6F7"/><stop offset="1" stop-color="#FBFFFF"/></linearGradient><linearGradient id="paint7_linear" x1="69.787" y1="26.779" x2="72.42" y2="31.34" gradientUnits="userSpaceOnUse"><stop stop-color="#BAC1C5"/><stop offset=".01" stop-color="#BAC1C5" stop-opacity=".987"/><stop offset=".429" stop-color="#ACBACE" stop-opacity=".46"/><stop offset=".794" stop-color="#A7B8D1" stop-opacity="0"/></linearGradient><linearGradient id="paint8_linear" x1="67.384" y1="28.001" x2="67.349" y2="24.209" gradientUnits="userSpaceOnUse"><stop stop-color="#E4EBEE"/><stop offset=".345" stop-color="#D9E0E4"/><stop offset=".942" stop-color="#BDC4C8"/><stop offset="1" stop-color="#BAC1C5"/></linearGradient><linearGradient id="paint9_linear" x1="64.272" y1="25.742" x2="67.33" y2="25.742" gradientUnits="userSpaceOnUse"><stop offset=".169" stop-color="#F5F9FA"/><stop offset=".52" stop-color="#F1F6F7"/><stop offset=".688" stop-color="#ECF2F4"/><stop offset=".802" stop-color="#EAF0F3"/><stop offset=".942" stop-color="#EAF0F5" stop-opacity=".429"/><stop offset=".993" stop-color="#EBEFFC" stop-opacity=".223"/><stop offset=".999" stop-color="#EBEFFD" stop-opacity=".2"/></linearGradient><linearGradient id="paint10_linear" x1="64.06" y1="22.929" x2="70.64" y2="22.929" gradientUnits="userSpaceOnUse"><stop stop-color="#E4EBEE"/><stop offset=".452" stop-color="#F0F6F7"/><stop offset="1" stop-color="#FBFFFF"/></linearGradient><linearGradient id="paint11_linear" x1="33.5" y1="42.995" x2="74.671" y2="65.107" gradientUnits="userSpaceOnUse"><stop stop-color="#BAC1C5"/><stop offset=".01" stop-color="#BAC1C5" stop-opacity=".987"/><stop offset=".429" stop-color="#ACBACE" stop-opacity=".46"/><stop offset=".794" stop-color="#A7B8D1" stop-opacity="0"/></linearGradient><linearGradient id="paint12_linear" x1="55.988" y1="17.33" x2="56.5" y2="28.995" gradientUnits="userSpaceOnUse"><stop offset=".034" stop-color="#686870"/><stop offset="1" stop-color="#A4A8AB"/></linearGradient><linearGradient id="paint13_linear" x1="49" y1="18.995" x2="57" y2="31.495" gradientUnits="userSpaceOnUse"><stop stop-color="#54545C"/><stop offset=".238" stop-color="#37373D"/><stop offset="1" stop-color="#54545C"/></linearGradient><linearGradient id="paint14_linear" x1="32.992" y1="29.276" x2="32.992" y2="43.807" gradientUnits="userSpaceOnUse"><stop stop-color="#62626B"/><stop offset=".244" stop-color="#37373D"/><stop offset=".621" stop-color="#62626B"/><stop offset="1" stop-color="#37373D"/></linearGradient><linearGradient id="paint15_linear" x1="48.5" y1="11.495" x2="30.5" y2="32.995" gradientUnits="userSpaceOnUse"><stop stop-color="#BAC1C5"/><stop offset=".468" stop-color="#E4EBEE"/><stop offset="1" stop-color="#BAC1C5"/></linearGradient><linearGradient id="paint16_linear" x1="41.988" y1="12.921" x2="34.5" y2="35.995" gradientUnits="userSpaceOnUse"><stop stop-color="#BAC1C5"/><stop offset="1" stop-color="#62626B"/></linearGradient><linearGradient id="paint17_linear" x1="27.5" y1="31.995" x2="30.439" y2="43.606" gradientUnits="userSpaceOnUse"><stop stop-color="#BAC1C5"/><stop offset=".367" stop-color="#8A8A8B"/><stop offset=".757" stop-color="#62626B"/><stop offset="1" stop-color="#BAC1C5"/></linearGradient><linearGradient id="paint18_linear" x1="26" y1="36.995" x2="28.738" y2="41.161" gradientUnits="userSpaceOnUse"><stop offset=".22" stop-color="#E4EBEE"/><stop offset=".47" stop-color="#BAC1C5"/><stop offset=".722" stop-color="#D4D8DB"/><stop offset="1" stop-color="#D1D8DB"/></linearGradient><linearGradient id="paint19_linear" x1="37.928" y1="57.047" x2="41.578" y2="63.368" gradientUnits="userSpaceOnUse"><stop stop-color="#BAC1C5"/><stop offset=".01" stop-color="#BAC1C5" stop-opacity=".987"/><stop offset=".429" stop-color="#ACBACE" stop-opacity=".46"/><stop offset=".794" stop-color="#A7B8D1" stop-opacity="0"/></linearGradient><linearGradient id="paint20_linear" x1="34.598" y1="58.74" x2="34.548" y2="53.483" gradientUnits="userSpaceOnUse"><stop stop-color="#E4EBEE"/><stop offset=".345" stop-color="#D9E0E4"/><stop offset=".942" stop-color="#BDC4C8"/><stop offset="1" stop-color="#BAC1C5"/></linearGradient><linearGradient id="paint21_linear" x1="30.284" y1="55.609" x2="34.523" y2="55.609" gradientUnits="userSpaceOnUse"><stop offset=".169" stop-color="#F5F9FA"/><stop offset=".52" stop-color="#F1F6F7"/><stop offset=".688" stop-color="#ECF2F4"/><stop offset=".802" stop-color="#EAF0F3"/><stop offset=".942" stop-color="#EAF0F5" stop-opacity=".429"/><stop offset=".993" stop-color="#EBEFFC" stop-opacity=".223"/><stop offset=".999" stop-color="#EBEFFD" stop-opacity=".2"/></linearGradient><linearGradient id="paint22_linear" x1="29.99" y1="51.709" x2="39.111" y2="51.709" gradientUnits="userSpaceOnUse"><stop stop-color="#E4EBEE"/><stop offset=".452" stop-color="#F0F6F7"/><stop offset="1" stop-color="#FBFFFF"/></linearGradient><linearGradient id="paint23_linear" x1="64.69" y1="51.749" x2="67.324" y2="56.309" gradientUnits="userSpaceOnUse"><stop stop-color="#BAC1C5"/><stop offset=".01" stop-color="#BAC1C5" stop-opacity=".987"/><stop offset=".429" stop-color="#ACBACE" stop-opacity=".46"/><stop offset=".794" stop-color="#A7B8D1" stop-opacity="0"/></linearGradient><linearGradient id="paint24_linear" x1="62.288" y1="52.971" x2="62.252" y2="49.178" gradientUnits="userSpaceOnUse"><stop stop-color="#E4EBEE"/><stop offset=".345" stop-color="#D9E0E4"/><stop offset=".942" stop-color="#BDC4C8"/><stop offset="1" stop-color="#BAC1C5"/></linearGradient><linearGradient id="paint25_linear" x1="59.176" y1="50.712" x2="62.233" y2="50.712" gradientUnits="userSpaceOnUse"><stop offset=".169" stop-color="#F5F9FA"/><stop offset=".52" stop-color="#F1F6F7"/><stop offset=".688" stop-color="#ECF2F4"/><stop offset=".802" stop-color="#EAF0F3"/><stop offset=".942" stop-color="#EAF0F5" stop-opacity=".429"/><stop offset=".993" stop-color="#EBEFFC" stop-opacity=".223"/><stop offset=".999" stop-color="#EBEFFD" stop-opacity=".2"/></linearGradient><linearGradient id="paint26_linear" x1="58.963" y1="47.898" x2="65.543" y2="47.898" gradientUnits="userSpaceOnUse"><stop stop-color="#E4EBEE"/><stop offset=".452" stop-color="#F0F6F7"/><stop offset="1" stop-color="#FBFFFF"/></linearGradient><linearGradient id="paint27_linear" x1="15.783" y1="42.816" x2="17.511" y2="45.809" gradientUnits="userSpaceOnUse"><stop stop-color="#BAC1C5"/><stop offset=".01" stop-color="#BAC1C5" stop-opacity=".987"/><stop offset=".429" stop-color="#ACBACE" stop-opacity=".46"/><stop offset=".794" stop-color="#A7B8D1" stop-opacity="0"/></linearGradient><linearGradient id="paint28_linear" x1="14.206" y1="43.616" x2="14.183" y2="41.127" gradientUnits="userSpaceOnUse"><stop stop-color="#E4EBEE"/><stop offset=".345" stop-color="#D9E0E4"/><stop offset=".942" stop-color="#BDC4C8"/><stop offset="1" stop-color="#BAC1C5"/></linearGradient><linearGradient id="paint29_linear" x1="12.164" y1="42.134" x2="14.171" y2="42.134" gradientUnits="userSpaceOnUse"><stop offset=".169" stop-color="#F5F9FA"/><stop offset=".52" stop-color="#F1F6F7"/><stop offset=".688" stop-color="#ECF2F4"/><stop offset=".802" stop-color="#EAF0F3"/><stop offset=".942" stop-color="#EAF0F5" stop-opacity=".429"/><stop offset=".993" stop-color="#EBEFFC" stop-opacity=".223"/><stop offset=".999" stop-color="#EBEFFD" stop-opacity=".2"/></linearGradient><linearGradient id="paint30_linear" x1="12.025" y1="40.288" x2="16.343" y2="40.288" gradientUnits="userSpaceOnUse"><stop stop-color="#E4EBEE"/><stop offset=".452" stop-color="#F0F6F7"/><stop offset="1" stop-color="#FBFFFF"/></linearGradient></defs></svg>